<svg version="1.1" viewBox="0.0 0.0 480.0 480.0" fill="none" stroke="none" stroke-linecap="square"
     stroke-miterlimit="10"
     xmlns="http://www.w3.org/2000/svg">
  <clipPath id="g2e3d785798f_0_0.0">
    <path d="m0 0l480.0 0l0 480.0l-480.0 0l0 -480.0z" clip-rule="nonzero"/>
  </clipPath>
  <g clip-path="url(#g2e3d785798f_0_0.0)">
    <defs>
      <linearGradient id="g2e3d785798f_0_0.1" gradientUnits="userSpaceOnUse"
                      gradientTransform="matrix(23.12676215628067 0.0 0.0 23.12676215628067 0.0 0.0)"
                      spreadMethod="pad" x1="-2.5070804510132407" y1="20.447783909800837"
                      x2="20.447785683092683" y2="23.262255192022927">
        <stop offset="0.0" stop-color="#0b5394"/>
        <stop offset="1.0" stop-color="#6fa8dc"/>
      </linearGradient>
    </defs>
    <path fill="url(#g2e3d785798f_0_0.1)" d="m0 0l480.0 0l0 480.0l-480.0 0z" fill-rule="evenodd"/>
    <path fill="#000000" fill-opacity="0.0" d="m0 0.031496063l480.0 0l0 479.937l-480.0 0z"
          fill-rule="evenodd"/>
    <path fill="#eeeeee"
          d="m223.85547 284.58148q0 23.1875 -6.21875 40.734375q-6.203125 17.53125 -17.8125 29.21875q-11.59375 11.6875 -28.296875 17.625q-16.6875 5.9375 -37.46875 5.9375q-23.390625 0 -40.09375 -5.9375q-16.6875 -5.9375 -27.078125 -17.0625q-10.390625 -11.140625 -15.03125 -27.09375q-4.640625 -15.953125 -4.640625 -35.8125l0 -160.875l45.640625 0l0 158.09375q0 12.25 2.140625 21.71875q2.140625 9.453125 7.421875 16.046875q5.28125 6.578125 13.265625 9.921875q7.984375 3.328125 20.046875 3.328125q11.3125 0 19.09375 -2.875q7.796875 -2.875 12.984375 -9.265625q5.203125 -6.40625 7.796875 -16.421875q2.609375 -10.03125 2.609375 -24.3125l0 -156.23438l45.640625 0l0 153.26562zm209.48828 -76.078125q0 18.9375 -6.3125 34.984375q-6.3125 16.046875 -18.75 27.734375q-12.421875 11.6875 -30.984375 18.1875q-18.546875 6.484375 -43.03125 6.484375l-23.203125 0l0 77.9375l-46.015625 0l0 -242.51562l71.0625 0q23.5625 0 41.65625 5.109375q18.09375 5.09375 30.421875 14.9375q12.34375 9.828125 18.75 24.21875q6.40625 14.375 6.40625 32.921875zm-47.875 3.15625q0 -9.640625 -3.0625 -17.53125q-3.0625 -7.890625 -9.28125 -13.453125q-6.203125 -5.5625 -15.671875 -8.53125q-9.46875 -2.96875 -22.453125 -2.96875l-23.9375 0l0 88.875l25.421875 0q11.875 0 20.96875 -3.25q9.09375 -3.25 15.296875 -9.359375q6.21875 -6.125 9.46875 -14.65625q3.25 -8.546875 3.25 -19.125z"
          fill-rule="nonzero"/>
  </g>
</svg>
