<?xml version="1.0" encoding="utf-8"?>
<svg version="1.1" id="layer" xmlns="http://www.w3.org/2000/svg" x="0px" y="0px"
     viewBox="-153 190 652 170" xml:space="preserve">
<style type="text/css">
	.st0{fill:#001B50;}
</style>
  <path class="st0" d="M332.2,256.4v52.8c1.2,0.7,3.2,1,6.3,1c3.2,0,5.2-0.3,6.4-1v-52.8c-1.2-0.7-3.2-1-6.4-1
	C335.4,255.4,333.4,255.7,332.2,256.4 M89.5,263.5c9.2,0,11.4,7,10.6,13.6H75.8C76.3,268.9,81.3,263.5,89.5,263.5 M62.7,283.4
	c0,17.6,10.1,28.7,28.6,28.7c7.5,0,13.5-1.9,17-4c2.1-2.2,3.5-7.1,3.2-10.6c-4.1,2.1-10.1,3.9-17.2,3.9c-11.4,0-18-4.5-18.6-14.5
	h35.3c1-3,1.4-6.4,1.4-9.9c0-13.8-7.2-23.5-22.5-23.5C73.1,253.5,62.7,265.6,62.7,283.4 M135.6,263.4h-0.7l-0.8-8.6
	c-4.2,0-7.9,0.7-10.3,2v52.5c1.2,0.7,3.2,1,6.3,1c3.2,0,5.2-0.3,6.4-1v-36.6c2.1-3.9,6.1-7.4,13-7.4c7.9,0,10.2,4.5,10.2,11.8v32.2
	c1.2,0.7,3.2,1,6.3,1c3.2,0,5.2-0.3,6.4-1v-34.6c0-18-9.9-21-18.4-21C143.8,253.5,138.1,257.9,135.6,263.4 M182.6,283.4
	c0,17.8,9.4,28.7,26.6,28.7c6.3,0,11.4-1.4,14.9-3.3c2.3-2.5,3.9-8.2,3.4-11.8c-4.1,2.2-8.7,3.7-14.3,3.7c-10.7,0-17.7-5.6-17.7-18
	c0-12.4,6.9-17.8,17.6-17.8c5.2,0,9.1,1.2,13.2,3.7c0.7-3.8-0.3-9.2-2.2-11.7c-3.1-2-8-3.1-13.5-3.1
	C194.7,253.5,182.6,262.9,182.6,283.4 M370.2,263.4h-0.7l-0.8-8.6c-4.2,0-7.9,0.7-10.3,2v52.5c1.2,0.7,3.2,1,6.3,1
	c3.2,0,5.2-0.3,6.4-1v-36.6c2.1-3.9,6.1-7.4,12.9-7.4c7.9,0,10.2,4.5,10.2,11.8v32.2c1.2,0.7,3.2,1,6.3,1c3.2,0,5.2-0.3,6.4-1v-34.6
	c0-18-9.8-21-18.4-21C378.4,253.5,372.8,257.9,370.2,263.4 M430.4,282.2c0-10.8,5.2-18.2,16.9-18.2c3.5,0,6,0.7,8.1,1.7v26.1
	c-2.2,3.5-5.8,6.4-11.7,6.4C435.3,298.2,430.4,292.7,430.4,282.2 M417.4,283.5c0,17.8,9.3,26.1,22.2,26.1c8.1,0,13.3-3.2,16.2-8.1
	h0.7c-0.7,2.6-1.2,7.1-1.2,10.4c0,9.8-3.7,14.9-14.6,14.9c-5.9,0-13.1-1.7-20-5.5c-1.2,3.8-0.7,9.5,1.7,13c5.6,2.7,13.3,4,19.8,4
	c20.8,0,25.9-12.3,25.9-28.8v-50.4c-6-3.8-12.4-5.7-20.5-5.7C428.7,253.5,417.4,263.8,417.4,283.5 M8.7,298.7v-23.2H22
	c11.6,0,18.8,3.8,18.8,12c0,8.3-7.3,11.8-19.6,11.8C16.6,299.2,12,299,8.7,298.7 M8.7,243c2.9-0.6,6.1-0.8,10.1-0.8
	c11.1,0,18,3.3,18,11.2c0,7.2-5.8,10.7-14.9,10.7H8.7V243z M-4.5,233v76.5c7.1,0.8,16.8,1.1,26.1,1.1c18.5,0,32.8-6.3,32.8-22.9
	c0-10.8-6.2-16.2-15.5-18.6v-0.7c6.9-1.9,11.4-8,11.4-16.7c0-15.1-13.3-20.8-31.8-20.8C9.8,230.9,2.3,231.8-4.5,233 M330.6,237.4
	c0,5,2.9,7.9,7.9,7.9c4.8,0,8-2.8,8-8c0-5.2-3.1-8.1-7.9-8.1C333.8,229.2,330.6,232.1,330.6,237.4 M237.5,230.6v78.6
	c1.2,0.7,3.2,1,6.3,1c3.2,0,5.2-0.3,6.4-1v-36.6c2.2-4,6.2-7.4,13.3-7.4c8,0,10.4,4.4,10.4,11.8v32.2c1.2,0.7,3.2,1,6.3,1
	c3.2,0,5.2-0.3,6.4-1v-34.6c0-18-10.1-21-18.8-21c-10.6,0-15.7,4.4-18.2,9.5H249c0.8-4.3,1.2-9.2,1.2-15.3v-19.8
	C244.3,227.9,240.4,228.8,237.5,230.6 M299.8,230.6v66.5c0,9.3,3.5,14.9,12.7,14.9c3.7,0,6.8-0.9,8.9-2.2c2-2.3,3.3-7.4,2.7-11.3
	c-1.9,1.3-4.3,2.1-6.9,2.1c-2.9,0-4.6-0.9-4.6-5.4v-67.3C306.6,227.9,302.7,228.8,299.8,230.6"/>
  <path class="st0" d="M-98,311.4c-1.6,1.4-2.7,2.9-3.2,4.7h18.4c-0.6-1.7-1.6-3.3-3.2-4.7H-98z M-80.9,302.4c-1.6,1-3.4,1.9-5.3,2.7
	l-0.4,0.2l0.4,0.2c5.6,3.4,8.4,7.8,8.4,13.6c0,1.6,1.3,2.9,2.9,2.9c1.6,0,2.9-1.3,2.9-2.9c0-6.8-2.9-12.5-8.6-16.8l-0.1-0.1
	L-80.9,302.4z M-101.3,283.9c0.6,1.8,1.6,3.3,3.2,4.7h11.9c1.6-1.4,2.6-2.9,3.2-4.7H-101.3z M-98,272.5c-1.6,1.4-2.7,2.9-3.2,4.7
	h18.4c-0.6-1.7-1.6-3.3-3.2-4.7H-98z M-111.9,241.2c0-1.9,1.5-3.4,3.4-3.4c1.9,0,3.4,1.5,3.4,3.4c0,1.9-1.5,3.4-3.4,3.4
	C-110.4,244.6-111.9,243-111.9,241.2 M-79.1,241.2c0-1.9,1.5-3.4,3.4-3.4c1.9,0,3.4,1.5,3.4,3.4c0,1.9-1.5,3.4-3.4,3.4
	C-77.6,244.6-79.1,243-79.1,241.2 M-124.7,239.5c-0.3,1.3-0.6,2.5-0.9,3.1c-2.2,5.7-5.1,8.3-5.1,8.4c-0.7,0.4-1.2,1.2-1.3,2v0.7
	c0,0.1,0,0.2,0,0.3c0.3,1.1,1.2,2,2.4,2.1c15.3,1.4,23.9,3.6,29.6,5.2c-8,4.5-12.1,10.9-12.1,19.1c0,8.4,4.3,14.9,12.7,19.4
	c-8.4,4.5-12.7,11.1-12.7,19.4c0,1.6,1.3,2.9,2.9,2.9c1.6,0,2.9-1.3,2.9-2.9c0-9.9,8.1-14.1,14.2-16.4c0.3-0.1,0.6-0.2,0.9-0.3
	c2.1-0.8,4.1-1.6,5.9-2.5c8.7-4.5,13.1-11.1,13.1-19.7c0-6.3-2.5-11.7-7.4-15.9l-0.1-0.1l-0.1,0c-2.4,0.6-4.6,1.2-6.5,1.8l-0.5,0.2
	l0.5,0.3c5.6,3.4,8.3,7.8,8.3,13.6c0,9.9-8.1,14.1-14.2,16.3c-6.1-2.3-14.2-6.4-14.2-16.3c0-9.9,8.1-14.1,14.2-16.4l0.4-0.1
	c1.4-0.6,3.4-1.4,7-2.4l0,0c5.8-1.7,14.4-3.9,30.2-5.4c1.2-0.1,2.1-0.9,2.4-2.1c0.3-1.1-0.2-2.3-1.2-2.9c0,0-2.9-2.7-5.1-8.4
	c-0.3-0.7-0.5-1.8-0.9-3.1c-2.1-8.3-7.1-27.8-32.6-27.8C-117.6,211.7-122.6,231.2-124.7,239.5"/>
</svg>
