<svg viewBox="-10 -10 166 59" style="width: 9.125rem;" xmlns="http://www.w3.org/2000/svg"
     xml:space="preserve">
  <g>
    <path
        d="M43.8008 20.8697C43.8008 19.3529 44.0122 17.9852 44.4349 16.7668C44.8576 15.5483 45.4544 14.5039 46.2253 13.6336C46.9962 12.7633 47.9039 12.0919 48.9483 11.6194C49.9927 11.147 51.149 10.9108 52.4173 10.9108C53.4617 10.9108 54.332 11.06 55.0283 11.3584C55.7495 11.6319 56.3214 11.9427 56.7441 12.2908C57.2415 12.6887 57.6518 13.1363 57.9751 13.6336H58.0497C58.0248 13.5342 58.0124 13.4347 58.0124 13.3352C57.9875 13.2358 57.9751 13.1239 57.9751 12.9995C57.9751 12.8503 57.9751 12.7011 57.9751 12.5519V5.46502C57.9751 4.42063 58.4848 3.89844 59.5044 3.89844H61.1456C62.1652 3.89844 62.675 4.42063 62.675 5.46502V28.8146C62.675 29.8589 62.1652 30.3811 61.1456 30.3811H59.7655C58.7459 30.3811 58.2362 29.9087 58.2362 28.9637V28.2178C58.2362 27.9691 58.2486 27.8075 58.2735 27.7329C58.2735 27.6583 58.2859 27.5961 58.3108 27.5464H58.2362C57.888 28.168 57.4404 28.7151 56.8933 29.1875C56.4209 29.6103 55.7992 29.9957 55.0283 30.3438C54.2823 30.6671 53.3622 30.8287 52.2681 30.8287C50.975 30.8287 49.8062 30.5925 48.7618 30.12C47.7174 29.6227 46.8221 28.9389 46.0761 28.0686C45.355 27.1982 44.7955 26.1539 44.3976 24.9354C43.9997 23.6921 43.8008 22.3369 43.8008 20.8697ZM48.5753 20.8697C48.5753 22.685 49.0105 24.1397 49.8808 25.2338C50.7512 26.303 51.895 26.8377 53.3125 26.8377C53.9342 26.8377 54.531 26.7258 55.1029 26.502C55.6749 26.2533 56.1846 25.8928 56.6322 25.4203C57.0798 24.923 57.428 24.3013 57.6767 23.5553C57.9502 22.7845 58.087 21.8768 58.087 20.8324C58.087 20.0865 57.9875 19.3653 57.7886 18.6691C57.5896 17.9728 57.2912 17.3512 56.8933 16.8041C56.5203 16.257 56.0354 15.8219 55.4386 15.4986C54.8418 15.1505 54.1455 14.9764 53.3498 14.9764C52.7032 14.9764 52.094 15.1132 51.522 15.3867C50.9501 15.6354 50.4403 16.0084 49.9927 16.5057C49.57 17.003 49.2218 17.6247 48.9483 18.3707C48.6996 19.0918 48.5753 19.9248 48.5753 20.8697Z"
        fill="currentColor" class="path"/>
    <path
        d="M67.1328 12.926C67.1328 11.8816 67.655 11.3594 68.6994 11.3594H70.3034C71.3478 11.3594 71.87 11.8816 71.87 12.926V22.6238C71.87 23.7926 72.0689 24.7375 72.4668 25.4586C72.8647 26.1549 73.648 26.503 74.8168 26.503C75.6623 26.503 76.4207 26.3289 77.0921 25.9808C77.7635 25.6327 78.323 25.1602 78.7706 24.5634C79.2183 23.9666 79.554 23.2828 79.7778 22.5119C80.0264 21.7411 80.1508 20.9329 80.1508 20.0875V12.926C80.1508 11.8816 80.673 11.3594 81.7174 11.3594H83.3213C84.3658 11.3594 84.888 11.8816 84.888 12.926V28.8156C84.888 29.86 84.3658 30.3822 83.3213 30.3822H81.8666C80.8471 30.3822 80.3373 29.86 80.3373 28.8156V27.6966C80.3373 27.5723 80.3373 27.4604 80.3373 27.3609C80.3373 27.2614 80.3497 27.1744 80.3746 27.0998C80.3746 27.0003 80.387 26.9133 80.4119 26.8387H80.3373C80.1135 27.336 79.7902 27.8209 79.3675 28.2934C78.9696 28.7658 78.4847 29.1886 77.9127 29.5616C77.3408 29.9346 76.7067 30.233 76.0104 30.4568C75.3141 30.7054 74.5557 30.8298 73.735 30.8298C71.6959 30.8298 70.0796 30.2703 68.8859 29.1513C67.7172 28.0323 67.1328 26.1797 67.1328 23.5936V12.926Z"
        fill="currentColor" class="path"/>
    <path
        d="M88.3496 20.8691C88.3496 19.5264 88.5858 18.2582 89.0583 17.0646C89.5557 15.8461 90.2519 14.7893 91.1472 13.8941C92.0424 12.9741 93.1241 12.2529 94.3923 11.7307C95.6854 11.1837 97.1153 10.9102 98.6819 10.9102C100.224 10.9102 101.504 11.134 102.524 11.5815C103.543 12.0043 104.339 12.4146 104.911 12.8124C105.309 13.086 105.52 13.4092 105.545 13.7822C105.595 14.1304 105.483 14.5158 105.21 14.9385L104.725 15.6845C104.451 16.1072 104.14 16.3435 103.792 16.3932C103.469 16.4181 103.083 16.3186 102.636 16.0948C102.238 15.8213 101.728 15.5602 101.106 15.3115C100.485 15.0628 99.7636 14.9385 98.943 14.9385C98.0727 14.9385 97.2769 15.1001 96.5558 15.4234C95.8346 15.7218 95.2254 16.1445 94.728 16.6916C94.2307 17.2138 93.8453 17.8354 93.5717 18.5566C93.2982 19.2528 93.1614 20.0113 93.1614 20.8318C93.1614 21.6276 93.2982 22.386 93.5717 23.1071C93.8453 23.8282 94.2307 24.4623 94.728 25.0094C95.2502 25.5565 95.8719 25.9916 96.5931 26.3149C97.3391 26.6381 98.1721 26.7998 99.0922 26.7998C100.037 26.7998 100.87 26.6381 101.591 26.3149C102.313 25.9916 102.897 25.6684 103.345 25.3451C104.289 24.8229 104.998 24.9845 105.471 25.83L105.844 26.5387C106.316 27.409 106.179 28.1053 105.433 28.6275C105.135 28.8512 104.774 29.0875 104.352 29.3361C103.929 29.5848 103.432 29.821 102.86 30.0448C102.288 30.2686 101.654 30.4551 100.957 30.6043C100.261 30.7535 99.5025 30.8281 98.6819 30.8281C97.1153 30.8281 95.6854 30.567 94.3923 30.0448C93.1241 29.5226 92.0424 28.814 91.1472 27.9188C90.2519 27.0236 89.5557 25.9792 89.0583 24.7856C88.5858 23.5671 88.3496 22.2617 88.3496 20.8691Z"
        fill="currentColor" class="path"/>
    <path
        d="M109.322 5.46502C109.322 4.42063 109.844 3.89844 110.889 3.89844H112.493C113.537 3.89844 114.059 4.42063 114.059 5.46502V18.0723H116.409L120.363 12.4027C120.786 11.7065 121.408 11.3584 122.228 11.3584H124.019C124.665 11.3584 125.076 11.5448 125.25 11.9178C125.424 12.2908 125.337 12.726 124.989 13.2233L120.251 19.8627V19.9373L125.846 28.5162C126.17 29.0632 126.232 29.5108 126.033 29.8589C125.859 30.2071 125.449 30.3811 124.802 30.3811H122.788C121.967 30.3811 121.358 30.0206 120.96 29.2994L116.521 22.0633H114.059V28.8146C114.059 29.8589 113.537 30.3811 112.493 30.3811H110.889C109.844 30.3811 109.322 29.8589 109.322 28.8146V5.46502Z"
        fill="currentColor" class="path"/>
    <path
        d="M127.755 34.8208C127.954 34.3981 128.203 34.1245 128.501 34.0002C128.8 33.9008 129.111 33.8883 129.434 33.9629C129.608 34.0375 129.807 34.1121 130.031 34.1867C130.255 34.2613 130.503 34.2986 130.777 34.2986C131.473 34.2986 132.082 34.0375 132.605 33.5153C133.127 33.018 133.525 32.4336 133.798 31.7622L134.507 30.0838L127.271 13.1871C127.022 12.64 127.009 12.2048 127.233 11.8816C127.457 11.5334 127.867 11.3594 128.464 11.3594H130.478C131.349 11.3594 131.933 11.7821 132.232 12.6276L135.812 22.3255C135.887 22.599 135.962 22.8849 136.036 23.1833C136.136 23.4569 136.223 23.7304 136.297 24.0039C136.397 24.3023 136.471 24.6007 136.521 24.8991H136.596C136.645 24.6007 136.708 24.3148 136.782 24.0412C136.832 23.7926 136.894 23.5315 136.969 23.2579C137.068 22.9595 137.155 22.6736 137.23 22.4001L140.587 12.6649C140.836 11.7945 141.42 11.3594 142.34 11.3594H144.205C144.777 11.3594 145.175 11.521 145.399 11.8443C145.647 12.1675 145.672 12.6027 145.473 13.1498L137.64 33.2169C137.317 34.0872 136.907 34.8332 136.409 35.4549C135.912 36.0766 135.365 36.5863 134.768 36.9842C134.171 37.4069 133.525 37.7177 132.828 37.9167C132.157 38.1156 131.473 38.2151 130.777 38.2151C130.255 38.2151 129.77 38.1529 129.322 38.0286C128.874 37.9042 128.477 37.7799 128.128 37.6556C127.681 37.4815 127.395 37.208 127.271 36.835C127.171 36.462 127.221 36.0641 127.42 35.6414L127.755 34.8208Z"
        fill="currentColor" class="path"/>
  </g>
  <g>
    <path
        d="M17.3151 22.9489C10.3515 22.9489 10.1292 26.4773 2.13714 26.8777C1.29516 26.9199 0.607425 27.5974 0.607424 28.4398L0.607422 29.66C0.60742 30.5024 1.29555 31.1901 2.13764 31.1502C10.4031 30.7588 11.2557 27.2196 17.315 27.2196C23.3827 27.2196 24.7509 30.7686 33.2692 31.1518C34.1114 31.1897 34.7998 30.5025 34.7998 29.6601L34.7998 28.4394C34.7998 27.597 34.111 26.9193 33.2688 26.8807C24.8495 26.4955 24.2966 22.9489 17.3151 22.9489Z"
        fill="#F8D06C" class="path"/>
    <path
        d="M26.8623 10.1369C26.8623 9.29454 27.5457 8.61166 28.3887 8.61166H33.2733C34.1164 8.61166 34.7998 9.29454 34.7998 10.1369V11.3571C34.7998 12.1995 34.1164 12.8823 33.2733 12.8823H28.3887C27.5457 12.8823 26.8623 12.1995 26.8623 11.3571V10.1369Z"
        fill="#F8D06C" class="path"/>
    <path
        d="M14.956 7.69652C14.956 3.48468 18.3731 0.0703125 22.5882 0.0703125C26.8034 0.0703125 30.2204 3.48468 30.2204 7.69652V16.848H30.2172C30.1338 20.7543 28.4529 24.2677 25.8011 26.762H6.55323C3.83256 24.2029 2.13386 20.5711 2.13386 16.5429V10.1369C2.13386 9.29454 2.81728 8.61166 3.66031 8.61166H14.956V7.69652ZM19.5353 8.00157C19.5353 6.31683 20.9022 4.95108 22.5882 4.95108C24.2743 4.95108 25.6411 6.31683 25.6411 8.00157V16.848C25.6411 22.0706 21.4039 26.3045 16.1771 26.3045C10.9504 26.3045 6.7132 22.0706 6.7132 16.848V14.4076C6.7132 13.5652 7.39661 12.8823 8.23964 12.8823H18.9247C19.262 12.8823 19.5353 12.6092 19.5353 12.2722V8.00157Z"
        fill="#F8D06C" fill-rule="evenodd" clip-rule="evenodd" class="path"/>
  </g>
</svg>
