<?xml version="1.0" encoding="utf-8"?>
<svg version="1.0" xmlns="http://www.w3.org/2000/svg"
     x="0px" y="0px"
     viewBox="15 49 190.3 44" xml:space="preserve">
  <path d="M25.3,82.9l12-23.9H42L29.9,82.9H25.3z M49,78.7h11.7v4.2H44.3V59H49L49,78.7z M63.5,63.1V59h4.6v4.1H63.5z M63.5,82.9V65.4
	h4.6v17.5L63.5,82.9z M82.4,65.4h4.9l-6.4,17.5h-4.5l-6.3-17.5h5l3.6,11.2L82.4,65.4z M104.8,75.5H92.3c0.2,2.5,1.8,4.1,4.2,4.1
	c2.1,0,3.4-1.1,4-2.7l4,1.3c-1.1,3.3-4.2,5.2-8.1,5.2c-5.3,0-8.7-3.5-8.7-9.1c0-5.5,3.2-9.2,8.8-9.2C102.2,65,105.3,68.9,104.8,75.5
	L104.8,75.5z M92.4,72.1h8c-0.3-2.2-1.6-3.5-3.9-3.5C94.1,68.7,92.7,70,92.4,72.1z M121.6,82.9l-4.7-9.4h-4v9.4h-4.6V59h9.1
	c5.9,0,8.9,2.8,8.9,7.2c0,3.2-1.6,5.4-4.6,6.5l5.3,10.2L121.6,82.9z M112.9,63.2v6.2h4.6c2.8,0,4-1.2,4-3.2c0-2-1.2-3-4-3H112.9z
	 M141.1,82.9c-0.2-0.3-0.4-0.9-0.5-1.6c-1.2,1.4-3.1,2-5.2,2c-4.7,0-7.9-3.3-7.9-9.1c0-6,3.4-9.2,8-9.2c2,0,3.6,0.6,4.8,1.9v-1.6
	h4.5v12.4c0,1.7,0.2,3.6,0.5,5.1L141.1,82.9L141.1,82.9z M140.3,74.2c0-3.5-1.7-5.4-4.1-5.4c-2.8,0-4.2,2.3-4.2,5.5
	c0,3.4,1.6,5.3,4.3,5.3C138.8,79.5,140.3,77.5,140.3,74.2L140.3,74.2z M174.1,73.5v9.4h-4.6v-9.4c0-1.7,0-4.6-2.7-4.6
	c-2.1,0-3.2,1.6-3.2,4.6v9.3h-4.6v-9.4c0-1.8,0-4.6-2.7-4.6c-2,0-3.2,1.6-3.2,4.5v9.4h-4.6V65.4h4.6v1.4c1.3-1.2,2.7-1.8,4.4-1.8
	c2.3,0,4,0.9,5,2.4c1.3-1.5,3-2.4,5.5-2.4C174.1,65,174.1,70,174.1,73.5L174.1,73.5z M195,74c0,5.8-3.2,9.2-7.7,9.2
	c-1.9,0-3.7-0.6-4.8-1.7V89h-4.6V65.4h4.6v1.8c1.2-1.4,2.8-2.2,4.9-2.2C192.1,65,195,68.6,195,74L195,74z M190.6,74.1
	c0-3.4-1.5-5.3-4.1-5.3c-2.6,0-4.1,2-4.1,5.4c0,3.4,1.6,5.3,4.1,5.3C189,79.5,190.6,77.4,190.6,74.1z"/>
</svg>
